# xmcd
#
# Track frame offsets:
#	150
#	62929
#	77022
#	131899
#	153762
#	197314
#	226731
#	250645
#
# Disc length: 3465 seconds
#
# Revision: 0
# Processed by: cddbd v1.5.1PL2 Copyright (c) Steve Scherf et al.
# Submitted via: dBpowerAMP V4.0
#
DISCID=590d8708
DTITLE=Ramkrishna Math - Sri Ramnam Sankirtan
DYEAR=1900
DGENRE=
TTITLE0=Srinathey Jankinathey
TTITLE1=Vernanamat
TTITLE2=Sridhabahar
TTITLE3=Bhayahar mangal
TTITLE4=Kankambar
TTITLE5=Aapadama
TTITLE6=Bhajan
TTITLE7=Ramdhun
EXTD=
EXTT0=
EXTT1=
EXTT2=
EXTT3=
EXTT4=
EXTT5=
EXTT6=
EXTT7=
PLAYORDER=
